# xmcd
# 
# Track frame offsets:
#     150
#     4641
#     18835
#     37572
#     54638
#     66862
#     80538
#     88339
#     99720
#     111472
#     122606
#     131603
#     143906
#     147922
#     152818
#     160442
#     167147
#     179344
#     195031
#     219677
#     228694
#     237370
#     252725
# 
# Disc length: 3430
# 
# Revision: 0
# Processed by: cddbd v1.5.2PL0 Copyright (c) Steve Scherf et al.
# Submitted via: fre:ac v1.0.17
# 
DISCID=450d6417
DTITLE=Various Artist - Enfermos de blues
DYEAR=2006
DGENRE=Blues
TTITLE0=Txus Blues and Jose Bluefingers - Intro
TTITLE1=Txus Blues and Jose Bluefingers - Lluvia dorada
TTITLE2=Txus Blues and Jose Bluefingers - Tengo el mocho loco
TTITLE3=Txus Blues and Jose Bluefingers - Blues del pez
TTITLE4=Txus Blues and Jose Bluefingers - Hippie era el
TTITLE5=Txus Blues and Jose Bluefingers - Polacos
TTITLE6=Txus Blues and Jose Bluefingers - Blackbird
TTITLE7=Txus Blues and Jose Bluefingers - Buscando sexo
TTITLE8=Txus Blues and Jose Bluefingers - Barman
TTITLE9=Txus Blues and Jose Bluefingers - Oh Jose
TTITLE10=Txus Blues and Jose Bluefingers - Hey Txus
TTITLE11=Txus Blues and Jose Bluefingers - Mama, mama
TTITLE12=Txus Blues and Jose Bluefingers - Finkas Okupa
TTITLE13=Txus Blues and Jose Bluefingers - Jamon de York
TTITLE14=Txus Blues and Jose Bluefingers - Xarnegui School
TTITLE15=Txus Blues and Jose Bluefingers - Villancico
TTITLE16=Txus Blues and Jose Bluefingers - Todos tocan blues
TTITLE17=Txus Blues and Jose Bluefingers - Tango del tanga
TTITLE18=Txus Blues and Jose Bluefingers - Narcocorrido cañi
TTITLE19=Txus Blues and Jose Bluefingers - Fuck me tender
TTITLE20=Txus Blues and Jose Bluefingers - Soy un taliban
TTITLE21=Txus Blues and Jose Bluefingers - Enfermo de blues
TTITLE22=Txus Blues and Jose Bluefingers - Bye, bye
EXTD=
EXTT0=
EXTT1=
EXTT2=
EXTT3=
EXTT4=
EXTT5=
EXTT6=
EXTT7=
EXTT8=
EXTT9=
EXTT10=
EXTT11=
EXTT12=
EXTT13=
EXTT14=
EXTT15=
EXTT16=
EXTT17=
EXTT18=
EXTT19=
EXTT20=
EXTT21=
EXTT22=
PLAYORDER=
